Patient4_TMGait_0pt2_01_right_09_GRF.mot
version=1
nRows=58
nColumns=19
inDegrees=no
endheader
time	F1x	F1y	F1z	M1x	M1y	M1z	F2x	F2y	F2z	M2x	M2y	M2z	EC1x	EC1y	EC1z	EC2x	EC2y	EC2z
18.62	-18.4807	582.9672	27.6394	-211.5826	-36.2138	655.7295	20.5937	202.4868	-13.3437	74.8531	5.5787	187.4156	-0.0592	0.0182	-0.0073	-0.0462	0.0165	0.9585
18.6446	-17.9629	606.1095	29.7403	-219.9607	-37.8486	677.829	18.859	186.0632	-12.8116	68.8492	5.5482	171.9215	-0.0592	0.0182	-0.0073	-0.0462	0.0165	0.9585
18.6693	-17.3681	635.3933	32.3874	-230.5861	-39.9116	705.8364	16.5165	165.9344	-11.9761	61.4423	5.4868	153.1512	-0.0592	0.0182	-0.0073	-0.0462	0.0165	0.9585
18.6939	-16.6815	669.64	35.4883	-243.0338	-42.325	738.5101	13.5911	142.9757	-10.832	52.9579	5.3872	131.924	-0.0592	0.0182	-0.0073	-0.0462	0.0165	0.9585
18.7186	-15.8358	706.6786	38.8694	-256.5162	-44.917	773.5545	10.256	118.4485	-9.4208	43.8719	5.2225	109.3703	-0.0592	0.0182	-0.0073	-0.0462	0.0165	0.9585
18.7432	-14.7207	743.4481	42.2903	-269.9221	-47.4325	807.7512	6.8203	93.8369	-7.8268	34.7447	4.951	86.8072	-0.0592	0.0182	-0.0073	-0.0462	0.0165	0.9585
18.7679	-13.2167	776.3769	45.489	-281.9551	-49.585	837.3825	3.6595	70.6054	-6.166	26.1274	4.5343	65.5375	-0.0592	0.0182	-0.0073	-0.0462	0.0165	0.9585
18.7925	-11.2068	802.0046	48.2203	-291.3579	-51.0966	858.8995	1.1304	49.9712	-4.5566	18.4771	3.9431	46.6474	-0.0592	0.0182	-0.0073	-0.0462	0.0165	0.9585
18.8171	-8.6222	817.6976	50.2917	-297.1696	-51.7495	869.6634	-0.52286	32.779	-3.1029	12.1091	3.1784	30.888	-0.0592	0.0182	-0.0073	-0.0462	0.0165	0.9585
18.8418	-5.4806	822.2574	51.5938	-298.9493	-51.4355	868.5636	-1.2959	19.4324	-1.8914	7.1717	2.3155	18.6104	-0.0592	0.0182	-0.0073	-0.0462	0.0165	0.9585
18.8664	-1.849	816.3062	52.1139	-296.9273	-50.1603	856.3767	-1.4482	9.8063	-0.96661	3.6165	1.4922	9.6927	-0.0592	0.0182	-0.0073	-0.0462	0.0165	0.9585
18.8911	2.2037	802.3184	51.9332	-292.0178	-48.0268	835.7465	-1.2391	3.2759	-0.31273	1.2106	0.78976	3.5552	-0.0592	0.0182	-0.0073	-0.0462	0.0165	0.9585
18.9157	6.5893	784.1013	51.2052	-285.6256	-45.2229	810.6375	-0.85488	-0.99785	0.12384	-0.35887	0.226	-0.58717	-0.0592	0.0182	-0.0073	-0.0462	0.0165	0.9585
18.9404	11.1856	765.8895	50.1131	-279.3147	-41.9845	785.4124	-0.41614	-3.8277	0.40603	-1.3943	-0.21454	-3.4862	-0.0592	0.0182	-0.0073	-0.0462	0.0165	0.9585
18.965	15.8742	751.365	48.8311	-274.4442	-38.5378	763.8302	0.004638	-5.8392	0.58755	-2.1284	-0.55842	-5.7064	-0.0592	0.0182	-0.0073	-0.0462	0.0165	0.9585
18.9896	20.5621	742.7935	47.5141	-271.8477	-35.0763	748.1995	0.36905	-7.3615	0.70322	-2.6841	-0.8243	-7.5121	-0.0592	0.0182	-0.0073	-0.0462	0.0165	0.9585
19.0143	25.1634	740.5402	46.2998	-271.6473	-31.7698	738.9333	0.65789	-8.3475	0.76504	-3.0466	-1.0115	-8.7801	-0.0592	0.0182	-0.0073	-0.0462	0.0165	0.9585
19.0389	29.576	743.0731	45.2989	-273.2502	-28.7674	734.5873	0.85683	-8.3171	0.75641	-3.0433	-1.0912	-8.9387	-0.0592	0.0182	-0.0073	-0.0462	0.0165	0.9585
19.0636	33.6928	747.4998	44.5647	-275.5516	-26.1669	732.4176	0.94792	-6.3232	0.6302	-2.3318	-0.99936	-6.924	-0.0592	0.0182	-0.0073	-0.0462	0.0165	0.9585
19.0882	37.4108	750.3803	44.0929	-277.2373	-24.0156	729.1885	0.90391	-0.96436	0.30677	-0.40129	-0.63033	-1.1822	-0.0592	0.0182	-0.0073	-0.0462	0.0165	0.9585
19.1129	40.6116	748.5009	43.8461	-277.075	-22.3398	721.9231	0.68458	9.5329	-0.32218	3.3979	0.15951	10.2485	-0.0592	0.0182	-0.0073	-0.0462	0.0165	0.9585
19.1375	43.1505	739.4129	43.7496	-274.1207	-21.1399	708.412	0.23993	27.1071	-1.376	9.7786	1.534	29.5151	-0.0592	0.0182	-0.0073	-0.0462	0.0165	0.9585
19.1621	44.8394	721.6269	43.6683	-267.796	-20.371	687.3867	-0.4843	53.4663	-2.9613	19.3728	3.6453	58.5163	-0.0592	0.0182	-0.0073	-0.0462	0.0165	0.9585
19.1868	45.4315	694.4945	43.3942	-257.8535	-19.9357	658.3905	-1.6492	89.5418	-5.1389	32.5327	6.6293	98.2966	-0.0592	0.0182	-0.0073	-0.0462	0.0165	0.9585
19.2114	44.6624	658.0688	42.6565	-244.3319	-19.6786	621.6156	-3.7332	134.8688	-7.879	49.1015	10.6283	148.3618	-0.0592	0.0182	-0.0073	-0.0462	0.0165	0.9585
19.2361	42.3476	613.1612	41.187	-227.5652	-19.4107	577.9177	-7.0147	187.0735	-11.0565	68.2179	15.5948	206.0961	-0.0592	0.0182	-0.0073	-0.0462	0.0165	0.9585
19.2607	38.5067	561.6509	38.8373	-208.2821	-18.9753	529.0647	-11.1049	242.2706	-14.5255	88.4517	21.199	267.1352	-0.0592	0.0182	-0.0073	-0.0462	0.0165	0.9585
19.2854	33.4316	506.6153	35.6529	-187.6459	-18.2942	477.8287	-15.3057	297.0415	-18.0234	108.5369	26.8698	327.5859	-0.0592	0.0182	-0.0073	-0.0462	0.0165	0.9585
19.31	27.6685	451.6803	31.8418	-167.0186	-17.3436	427.377	-18.9684	348.9672	-21.2723	127.5738	32.0449	384.671	-0.0592	0.0182	-0.0073	-0.0462	0.0165	0.9585
19.3346	21.9013	400.1421	27.7287	-147.6375	-16.1517	380.4866	-21.6981	396.2842	-24.0834	144.9005	36.3634	436.3723	-0.0592	0.0182	-0.0073	-0.0462	0.0165	0.9585
19.3593	16.7446	354.3607	23.7006	-130.393	-14.8234	339.0487	-23.3279	437.7793	-26.3627	160.0581	39.6606	481.3246	-0.0592	0.0182	-0.0073	-0.0462	0.0165	0.9585
19.3839	12.5686	315.5211	20.067	-115.7467	-13.4788	303.9192	-23.8816	472.726	-28.051	172.7762	41.8834	518.7445	-0.0592	0.0182	-0.0073	-0.0462	0.0165	0.9585
19.4086	9.4632	283.6248	16.9847	-103.7222	-12.2032	274.9392	-23.5457	501.0824	-29.1089	183.0461	43.0642	548.636	-0.0592	0.0182	-0.0073	-0.0462	0.0165	0.9585
19.4332	7.341	257.7413	14.5114	-93.9869	-11.0625	251.1579	-22.5744	523.6709	-29.5621	191.1788	43.3374	571.9634	-0.0592	0.0182	-0.0073	-0.0462	0.0165	0.9585
19.4579	6.0065	236.4705	12.6339	-86.023	-10.1072	231.2657	-21.225	541.9742	-29.5322	197.7226	42.9444	590.4056	-0.0592	0.0182	-0.0073	-0.0462	0.0165	0.9585
19.4825	5.2192	218.3855	11.2495	-79.2975	-9.3334	213.9914	-19.7219	557.6588	-29.2014	203.2859	42.1767	605.8339	-0.0592	0.0182	-0.0073	-0.0462	0.0165	0.9585
19.5071	4.7687	202.3177	10.2049	-73.372	-8.6875	198.3344	-18.2184	572.0567	-28.7588	208.3518	41.3022	619.7433	-0.0592	0.0182	-0.0073	-0.0462	0.0165	0.9585
19.5318	4.5201	187.4915	9.3673	-67.9536	-8.1126	183.6721	-16.7829	585.851	-28.3468	213.1696	40.4998	632.9106	-0.0592	0.0182	-0.0073	-0.0462	0.0165	0.9585
19.5564	4.4313	173.4712	8.6526	-62.8742	-7.563	169.6933	-15.4274	599.1447	-28.022	217.7831	39.8262	645.4758	-0.0592	0.0182	-0.0073	-0.0462	0.0165	0.9585
19.5811	4.5496	159.9519	8.0105	-58.0116	-6.9854	156.1822	-14.1206	611.7483	-27.7867	222.1302	39.2527	657.2387	-0.0592	0.0182	-0.0073	-0.0462	0.0165	0.9585
19.6057	4.9499	146.6103	7.4124	-53.2321	-6.3294	142.877	-12.7925	623.4871	-27.6602	226.1486	38.7472	667.9837	-0.0592	0.0182	-0.0073	-0.0462	0.0165	0.9585
19.6304	5.6309	133.1491	6.8569	-48.4094	-5.5909	129.5243	-11.3632	634.4232	-27.6897	229.857	38.3063	677.7277	-0.0592	0.0182	-0.0073	-0.0462	0.0165	0.9585
19.655	6.4658	119.4479	6.3644	-43.4826	-4.8283	116.0234	-9.7595	644.8677	-27.917	233.3693	37.9285	686.742	-0.0592	0.0182	-0.0073	-0.0462	0.0165	0.9585
19.6796	7.2283	105.7107	5.9707	-38.5122	-4.1503	102.5724	-7.9277	655.2021	-28.3395	236.8411	37.5808	695.3811	-0.0592	0.0182	-0.0073	-0.0462	0.0165	0.9585
19.7043	7.6602	92.5119	5.7138	-33.6984	-3.6822	89.7155	-5.8651	665.6448	-28.884	240.3919	37.1872	703.8732	-0.0592	0.0182	-0.0073	-0.0462	0.0165	0.9585
19.7289	7.5492	80.6266	5.6204	-29.3221	-3.5282	78.1858	-3.6484	676.0902	-29.4179	244.0424	36.65	712.1746	-0.0592	0.0182	-0.0073	-0.0462	0.0165	0.9585
19.7536	6.8063	70.743	5.6918	-25.6411	-3.7314	68.6267	-1.4329	686.1461	-29.7909	247.7113	35.8837	719.9958	-0.0592	0.0182	-0.0073	-0.0462	0.0165	0.9585
19.7782	5.501	63.1964	5.902	-22.7911	-4.2561	61.3411	0.56532	695.4867	-29.8781	251.3222	34.8467	727.1404	-0.0592	0.0182	-0.0073	-0.0462	0.0165	0.9585
19.8029	3.8148	57.8114	6.1986	-20.7254	-5.0022	56.146	2.11	704.2938	-29.646	254.9495	33.5907	733.9275	-0.0592	0.0182	-0.0073	-0.0462	0.0165	0.9585
19.8275	1.9553	53.8651	6.5129	-19.1979	-5.8397	52.3343	3.0314	713.5719	-29.1653	258.9331	32.2435	741.4805	-0.0592	0.0182	-0.0073	-0.0462	0.0165	0.9585
19.8521	0.11247	50.2614	6.754	-17.823	-6.6185	48.8413	3.2933	724.9804	-28.5673	263.8269	30.9505	751.5313	-0.0592	0.0182	-0.0073	-0.0462	0.0165	0.9585
19.8768	-1.5536	45.9169	6.8072	-16.215	-7.1736	44.6223	2.9804	740.06	-27.9975	270.1277	29.8397	765.6336	-0.0592	0.0182	-0.0073	-0.0462	0.0165	0.9585
19.9014	-2.9052	40.1846	6.5586	-14.1423	-7.3472	39.059	2.234	759.3042	-27.5888	277.9441	29.015	784.2365	-0.0592	0.0182	-0.0073	-0.0462	0.0165	0.9585
19.9261	-3.8015	33.0642	5.9456	-11.6029	-7.0288	32.1569	1.1904	781.6641	-27.4239	286.8212	28.5368	806.2073	-0.0592	0.0182	-0.0073	-0.0462	0.0165	0.9585
19.9507	-4.0996	25.1313	4.9885	-8.7979	-6.1894	24.4767	-0.047218	804.7404	-27.5077	295.8209	28.3952	829.0449	-0.0592	0.0182	-0.0073	-0.0462	0.0165	0.9585
19.9754	-3.7666	17.2917	3.8085	-6.0418	-4.931	16.891	-1.3998	825.462	-27.7818	303.7801	28.5198	849.5769	-0.0592	0.0182	-0.0073	-0.0462	0.0165	0.9585
20	-3.0197	10.433	2.6171	-3.6392	-3.527	10.2551	-2.7674	840.9462	-28.1502	309.6276	28.7947	864.8179	-0.0592	0.0182	-0.0073	-0.0462	0.0165	0.9585
20.0246	-2.1515	5.0314	1.5874	-1.7504	-2.2427	5.0299	-4.0114	849.2911	-28.5024	312.6735	29.0779	872.774	-0.0592	0.0182	-0.0073	-0.0462	0.0165	0.9585
